<svg width="31" height="30" viewBox="0 0 31 30" fill="none" xmlns="http://www.w3.org/2000/svg">
<path d="M30.351 14.7675L17.1439 1.94449L16.2587 1.08453C16.057 0.889884 15.7842 0.78064 15.4999 0.78064C15.2156 0.78064 14.9428 0.889884 14.7411 1.08453L0.648823 14.7675C0.442142 14.9675 0.278799 15.2057 0.168435 15.468C0.058071 15.7304 0.00292266 16.0115 0.00624519 16.2949C0.0199171 17.4636 1.02138 18.3966 2.22451 18.3966H3.67714V29.2109H27.3227V18.3966H28.806C29.3905 18.3966 29.9408 18.1742 30.3544 17.7724C30.558 17.5752 30.7194 17.3408 30.8291 17.0826C30.9388 16.8244 30.9947 16.5476 30.9935 16.2683C30.9935 15.7039 30.7645 15.1693 30.351 14.7675ZM17.414 26.8203H13.5858V20.0468H17.414V26.8203ZM24.8617 16.006V26.8203H19.6015V19.25C19.6015 18.5162 18.9896 17.9218 18.2343 17.9218H12.7655C12.0102 17.9218 11.3983 18.5162 11.3983 19.25V26.8203H6.13808V16.006H2.85683L15.5033 3.73082L16.2929 4.49781L28.1464 16.006H24.8617Z" fill="#192C44"/>
</svg>
