<svg width="14" height="7" viewBox="0 0 14 7" fill="none" xmlns="http://www.w3.org/2000/svg">
<path d="M12.4 0.628384L7.44468 5.5054C7.33656 5.61237 7.19062 5.67236 7.03853 5.67236C6.88644 5.67236 6.74049 5.61237 6.63237 5.5054L1.67709 0.629442C1.5683 0.522535 1.42187 0.462632 1.26935 0.462632C1.11682 0.462632 0.970394 0.522535 0.861605 0.629442C0.808035 0.681668 0.76546 0.744089 0.736391 0.813025C0.707321 0.881963 0.692346 0.956022 0.692346 1.03084C0.692346 1.10565 0.707321 1.17971 0.736391 1.24865C0.76546 1.31758 0.808035 1.38 0.861605 1.43223L5.81584 6.30819C6.14216 6.62859 6.58121 6.80811 7.03853 6.80811C7.49585 6.80811 7.9349 6.62859 8.26122 6.30819L13.2155 1.43223C13.2692 1.37999 13.3119 1.3175 13.3411 1.24847C13.3702 1.17943 13.3853 1.10525 13.3853 1.03031C13.3853 0.955364 13.3702 0.881183 13.3411 0.812148C13.3119 0.743113 13.2692 0.680626 13.2155 0.628384C13.1067 0.521477 12.9602 0.461574 12.8077 0.461574C12.6552 0.461574 12.5088 0.521477 12.4 0.628384Z" fill="#ABB1B8"/>
</svg>
