<svg width="21" height="29" viewBox="0 0 21 29" fill="none" xmlns="http://www.w3.org/2000/svg">
<path d="M3.61133 3.47778H19.1113V4.81251H3.61133V3.47778Z" fill="#192C44"/>
<path d="M19.9724 5.88883H3.49078C3.27103 5.88572 3.05418 5.83813 2.85332 5.74893C2.65246 5.65974 2.47174 5.53078 2.32207 5.36985C2.1724 5.20891 2.05688 5.01933 1.98247 4.81253C1.90806 4.60574 1.8763 4.38601 1.88911 4.16661C1.88804 3.72999 2.05285 3.30926 2.3502 2.98953C2.64754 2.66981 3.05523 2.47495 3.49078 2.44439H19.9724C20.2008 2.44439 20.4199 2.35367 20.5813 2.19218C20.7428 2.03069 20.8336 1.81166 20.8336 1.58328C20.8336 1.3549 20.7428 1.13587 20.5813 0.974382C20.4199 0.812892 20.2008 0.722168 19.9724 0.722168H3.49078C2.59831 0.753423 1.75287 1.13007 1.13276 1.77267C0.512646 2.41528 0.166345 3.2736 0.166893 4.16661C0.158562 4.30714 0.158562 4.44803 0.166893 4.58856C0.158596 4.6572 0.158596 4.72658 0.166893 4.79522V24.8333C0.166345 25.7263 0.512646 26.5846 1.13276 27.2272C1.75287 27.8698 2.59831 28.2465 3.49078 28.2777H19.9724C20.2008 28.2777 20.4199 28.187 20.5813 28.0255C20.7428 27.864 20.8336 27.645 20.8336 27.4166V6.81022C20.8341 6.57595 20.7453 6.35028 20.5853 6.17912C20.4254 6.00796 20.2062 5.90416 19.9724 5.88883ZM19.1113 26.5555H3.49078C3.05523 26.5249 2.64754 26.3301 2.3502 26.0104C2.05285 25.6906 1.88804 25.2699 1.88911 24.8333V7.22356C2.37873 7.49366 2.93184 7.62748 3.49078 7.61106H19.1113V26.5555Z" fill="#192C44"/>
</svg>
