<svg width="19" height="29" viewBox="0 0 19 29" fill="none" xmlns="http://www.w3.org/2000/svg">
<path d="M0 26.7772V1C0 0.447715 0.447715 0 1 0H18C18.5523 0 19 0.447716 19 1V26.6948C19 27.5697 17.9557 28.0228 17.3167 27.4249L10.4218 20.9732C10.0449 20.6205 9.46147 20.6126 9.0752 20.9551L1.66335 27.5255C1.01816 28.0974 0 27.6394 0 26.7772Z" fill="#EBD09E"/>
<path d="M14.375 8.875H11.125V5.625C11.125 5.19402 10.9538 4.7807 10.649 4.47595C10.3443 4.1712 9.93098 4 9.5 4C9.06902 4 8.6557 4.1712 8.35095 4.47595C8.04621 4.7807 7.875 5.19402 7.875 5.625L7.93269 8.875H4.625C4.19402 8.875 3.7807 9.04621 3.47595 9.35095C3.1712 9.6557 3 10.069 3 10.5C3 10.931 3.1712 11.3443 3.47595 11.649C3.7807 11.9538 4.19402 12.125 4.625 12.125L7.93269 12.0673L7.875 15.375C7.875 15.806 8.04621 16.2193 8.35095 16.524C8.6557 16.8288 9.06902 17 9.5 17C9.93098 17 10.3443 16.8288 10.649 16.524C10.9538 16.2193 11.125 15.806 11.125 15.375V12.0673L14.375 12.125C14.806 12.125 15.2193 11.9538 15.524 11.649C15.8288 11.3443 16 10.931 16 10.5C16 10.069 15.8288 9.6557 15.524 9.35095C15.2193 9.04621 14.806 8.875 14.375 8.875Z" fill="#192C44"/>
</svg>
