<svg width="36" height="36" viewBox="0 0 36 36" fill="none" xmlns="http://www.w3.org/2000/svg">
<g filter="url(#filter0_d_148_278)">
<path d="M4 7C4 3.13401 7.13401 0 11 0H25C28.866 0 32 3.13401 32 7V21C32 24.866 28.866 28 25 28H11C7.13401 28 4 24.866 4 21V7Z" fill="#EBD09E"/>
</g>
<g clip-path="url(#clip0_148_278)">
<path fill-rule="evenodd" clip-rule="evenodd" d="M16.3699 8.6571C16.4896 9.66506 16.326 10.7162 15.9619 11.6597C15.5588 12.7038 15.0233 13.8343 14.9568 14.9584C14.9008 15.9055 15.1154 17.0261 15.6878 17.7932C16.3146 18.6333 17.3438 19.1666 18.4765 19.1666H19.5475C20.4359 19.1667 21.2919 18.8328 21.9457 18.2312C22.5995 17.6297 23.0033 16.8043 23.0771 15.9189L23.3328 12.8504C23.3409 12.7528 23.3287 12.6545 23.2969 12.5618C23.2651 12.4691 23.2144 12.384 23.148 12.3119C23.0817 12.2398 23.001 12.1823 22.9113 12.1429C22.8215 12.1036 22.7246 12.0833 22.6266 12.0833H18.854C18.5732 12.0829 18.304 11.9717 18.1049 11.7738C17.9057 11.5758 17.7929 11.3072 17.7908 11.0265C17.7851 10.3394 17.8283 9.49152 17.5124 8.85898C17.2291 8.29231 16.9642 8.18748 16.729 8.18748C16.5165 8.18748 16.3465 8.46585 16.3699 8.6571ZM16.729 6.77081C17.6895 6.77081 18.3539 7.37431 18.7796 8.22502C19.1494 8.96523 19.1841 9.85419 19.2025 10.6666H22.6266C22.9206 10.6666 23.2114 10.7276 23.4807 10.8457C23.7499 10.9638 23.9917 11.1365 24.1907 11.3529C24.3898 11.5693 24.5418 11.8246 24.6371 12.1027C24.7324 12.3809 24.769 12.6757 24.7445 12.9687L24.4888 16.0365C24.3856 17.276 23.8202 18.4315 22.9049 19.2737C21.9897 20.1159 20.7913 20.5833 19.5475 20.5833H18.4765C17.8045 20.5852 17.1393 20.4493 16.522 20.184C15.9047 19.9186 15.3483 19.5295 14.8873 19.0406C14.5635 19.1247 14.2302 19.1671 13.8957 19.1666C13.1108 19.1666 12.4592 18.7275 12.037 18.0276C11.6262 17.3476 11.4165 16.4091 11.4165 15.2708C11.4165 14.1332 11.6269 13.1947 12.037 12.5147C12.4592 11.8141 13.1108 11.375 13.8957 11.375C14.0947 11.375 14.3058 11.4104 14.5169 11.4699C14.8413 10.6199 15.0722 9.74369 14.9631 8.82427C14.8413 7.80073 15.6778 6.77081 16.729 6.77081ZM14.0345 12.8086C13.691 12.7378 13.4218 12.9616 13.2504 13.2464C13.0195 13.6289 12.8332 14.2834 12.8332 15.2708C12.8332 16.2582 13.0195 16.9134 13.2497 17.2959C13.4693 17.6586 13.703 17.75 13.8957 17.75C13.941 17.75 13.9856 17.7486 14.0303 17.7464C13.6506 16.8908 13.4877 15.8056 13.5429 14.8749C13.5762 14.3046 13.7986 13.5163 14.0345 12.8086Z" fill="#192C44"/>
</g>
<defs>
<filter id="filter0_d_148_278" x="0" y="0" width="36" height="36" filterUnits="userSpaceOnUse" color-interpolation-filters="sRGB">
<feFlood flood-opacity="0" result="BackgroundImageFix"/>
<feColorMatrix in="SourceAlpha" type="matrix" values="0 0 0 0 0 0 0 0 0 0 0 0 0 0 0 0 0 0 127 0" result="hardAlpha"/>
<feOffset dy="4"/>
<feGaussianBlur stdDeviation="2"/>
<feComposite in2="hardAlpha" operator="out"/>
<feColorMatrix type="matrix" values="0 0 0 0 0 0 0 0 0 0 0 0 0 0 0 0 0 0 0.25 0"/>
<feBlend mode="normal" in2="BackgroundImageFix" result="effect1_dropShadow_148_278"/>
<feBlend mode="normal" in="SourceGraphic" in2="effect1_dropShadow_148_278" result="shape"/>
</filter>
<clipPath id="clip0_148_278">
<rect width="17" height="17" fill="white" transform="translate(10 5)"/>
</clipPath>
</defs>
</svg>
