<svg width="26" height="26" viewBox="0 0 26 26" fill="none" xmlns="http://www.w3.org/2000/svg">
<path fill-rule="evenodd" clip-rule="evenodd" d="M18.4062 16.6238L25.1312 23.3488C25.3676 23.5853 25.5003 23.9061 25.5002 24.2405C25.5001 24.5749 25.3671 24.8955 25.1306 25.1319C24.894 25.3683 24.5733 25.501 24.2389 25.5009C23.9045 25.5008 23.5838 25.3678 23.3475 25.1313L16.6225 18.4063C14.6121 19.9634 12.0841 20.6961 9.55261 20.4555C7.02117 20.2148 4.67649 19.0188 2.99556 17.1108C1.31462 15.2028 0.423692 12.7261 0.504019 10.1845C0.584346 7.6429 1.62989 5.22737 3.42796 3.4293C5.22603 1.63124 7.64155 0.585688 10.1831 0.505362C12.7247 0.425035 15.2014 1.31596 17.1095 2.9969C19.0175 4.67784 20.2135 7.02252 20.4541 9.55396C20.6948 12.0854 19.962 14.6134 18.405 16.6238M10.5 18C12.4891 18 14.3967 17.2099 15.8033 15.8033C17.2098 14.3968 18 12.4892 18 10.5C18 8.51092 17.2098 6.60327 15.8033 5.19675C14.3967 3.79022 12.4891 3.00005 10.5 3.00005C8.51083 3.00005 6.60318 3.79022 5.19665 5.19675C3.79013 6.60327 2.99995 8.51092 2.99995 10.5C2.99995 12.4892 3.79013 14.3968 5.19665 15.8033C6.60318 17.2099 8.51083 18 10.5 18Z" fill="#192C44"/>
</svg>
